<svg id="visual" viewBox="0 0 960 540" width="960" height="540" xmlns="http://www.w3.org/2000/svg" xmlns:xlink="http://www.w3.org/1999/xlink" version="1.1"><rect x="0" y="0" width="960" height="540" fill="#001220"></rect><defs><linearGradient id="grad1_0" x1="43.8%" y1="0%" x2="100%" y2="100%"><stop offset="14.444444444444446%" stop-color="#001220" stop-opacity="1"></stop><stop offset="85.55555555555554%" stop-color="#001220" stop-opacity="1"></stop></linearGradient></defs><defs><linearGradient id="grad2_0" x1="0%" y1="0%" x2="56.3%" y2="100%"><stop offset="14.444444444444446%" stop-color="#001220" stop-opacity="1"></stop><stop offset="85.55555555555554%" stop-color="#001220" stop-opacity="1"></stop></linearGradient></defs><g transform="translate(960, 0)"><path d="M0 324C-40 307.4 -80.1 290.9 -111.7 269.8C-143.4 248.7 -166.7 223.1 -200.1 200.1C-233.5 177.2 -277 156.9 -299.3 124C-321.7 91.1 -322.8 45.5 -324 0L0 0Z" fill="#715DF2"></path></g><g transform="translate(0, 540)"><path d="M0 -324C39.7 -315.5 79.4 -307 121.7 -293.8C164 -280.6 209 -262.6 229.1 -229.1C249.2 -195.7 244.3 -146.8 255.9 -106C267.6 -65.2 295.8 -32.6 324 0L0 0Z" fill="#715DF2"></path></g></svg>